<svg width="61" height="64" viewBox="0 0 61 64" fill="none" xmlns="http://www.w3.org/2000/svg">
<g clip-path="url(#clip0_2777_4545)">
<path d="M28.873 0.911011C53.1707 0.428013 68.4925 29.6572 54.709 49.9305C48.4209 59.1787 37.7921 63.5956 27.5615 63.0477C20.158 62.6512 12.9996 59.6575 7.86621 54.0419C18.2049 63.8132 34.7757 65.4814 46.6846 55.3856C48.8072 53.5862 49.6659 52.1895 51.0332 50.1698C51.2154 49.9006 51.3758 49.7303 51.5215 49.5917C51.6354 49.4834 51.8712 49.2823 52.0283 49.1053C52.3812 48.7079 52.5726 48.2314 52.6738 47.4569C53.0601 47.2621 53.3224 46.9329 53.4902 46.66C53.7315 46.2676 53.9244 45.7389 54.0186 45.5272L54.0195 45.5253C54.2 45.1156 54.3811 44.3686 54.5137 43.7938C54.5943 43.4444 54.6362 43.2514 54.6953 42.996C54.72 42.8893 54.7391 42.8078 54.7539 42.7518C54.7548 42.7484 54.756 42.7451 54.7568 42.7421C55.1598 42.0745 55.3726 41.6105 55.5107 41.0731C55.5741 40.8265 55.6232 40.5518 55.6748 40.2382L55.8525 39.1678C56.1337 37.6047 56.372 36.6256 56.3857 34.8602L56.3848 34.8593C56.4463 27.8151 53.5517 20.6461 48.7949 15.369C44.0328 10.0861 37.356 6.65 29.8496 7.20007C29.1419 7.25175 28.1194 7.47272 27.0703 7.6825C25.9868 7.89914 24.8128 8.11896 23.7002 8.20789C22.5742 8.29785 21.5945 8.24531 20.8701 7.97742C20.237 7.74324 19.8085 7.3538 19.6162 6.68445L19.5811 6.54675C19.3737 5.63169 19.5934 4.8739 20.1035 4.20691C20.6342 3.51322 21.4916 2.90793 22.5459 2.40808C24.656 1.40779 27.3124 0.942026 28.873 0.911011ZM54.709 42.826L54.71 42.8231C54.7111 42.8213 54.7118 42.8191 54.7129 42.8173C54.7113 42.8199 54.7106 42.8234 54.709 42.826Z" fill="#A87C39" stroke="#151515" stroke-width="1.5"/>
<path d="M49.1053 21.7936L44.7201 19.2574C42.5013 18.3132 40.1828 17.5133 37.7515 17.3428C33.9879 17.0779 25.721 19.2679 23.2347 15.8504C20.1844 11.6619 28.2834 11.1846 30.6832 11.3472C37.3581 11.7931 46.2177 15.3626 49.1053 21.7936Z" fill="#A87C39"/>
<path d="M49.1055 27.8023C48.9665 27.9596 46.5483 26.4043 46.1103 26.2286C41.9113 24.5422 39.3673 25.9952 35.7715 25.3343C31.3522 24.5212 29.5241 20.7576 35.3964 20.2304C39.2597 19.8842 43.346 20.8887 46.2388 23.4879C46.8447 24.0308 49.769 27.0626 49.1081 27.8023H49.1055Z" fill="#A87C39"/>
<path d="M1.81516 44.2625C2.37643 43.2135 5.11719 41.3146 6.1217 40.3389C6.3761 40.0898 6.61477 39.998 6.51773 39.5626C4.67919 38.7758 1.58174 40.1816 0.401505 38.2329C-1.54981 35.0174 4.12055 33.4438 6.65411 36.1583C7.15768 36.6986 7.73992 38.1752 7.83697 38.2407C7.94187 38.3116 8.27234 38.267 8.43233 38.2119L17.6198 29.8899L18.7292 29.431H38.9872L40.3537 30.1548L49.2736 38.2355C49.9896 38.364 50.8367 36.0508 51.3901 35.6311C52.4707 34.8128 54.3407 34.8023 55.639 34.8548C55.6232 36.5412 55.4003 37.4461 55.1171 39.0354C53.8319 39.059 52.2897 38.8361 51.1987 39.6937C51.0649 40.2865 53.5828 41.9729 54.0706 42.4345C53.9945 42.5578 53.6247 44.5615 53.3336 45.2251C53.0713 45.8205 52.7645 46.8643 51.9803 46.8774C52.1953 43.8954 51.6367 43.0797 48.4474 43.4757C47.5767 43.5833 42.2892 46.8276 41.985 47.4597C40.2173 51.1367 48.6677 49.3349 50.4145 49.7493C49.0402 51.7793 48.235 53.0907 46.2024 54.8138C31.5255 67.2561 9.52863 61.3602 1.81778 44.2625H1.81516ZM40.9149 34.6869C39.795 34.0076 39.1236 32.7382 37.7231 32.5232L19.773 32.5678L18.6636 33.0267C17.4441 35.1774 9.10112 39.1797 13.6883 41.1415L44.4819 41.0654C45.5283 40.9238 45.6306 39.7278 45.2503 38.844C44.6654 37.488 41.707 36.1085 40.9149 34.6896V34.6869ZM6.05875 49.4267C6.34725 49.7152 7.01867 49.7257 7.42257 49.7598C8.90704 49.8857 13.4313 49.988 14.7426 49.7414C16.054 49.4949 16.3268 47.8793 15.3904 47.0164C14.6167 46.3057 10.1896 43.5859 9.26898 43.4705C8.07039 43.321 6.12432 43.258 5.79123 44.7084C5.62075 45.4428 5.60502 48.9704 6.05875 49.4241V49.4267ZM39.7006 49.7493C39.6822 48.1757 40.0966 46.7646 38.2004 46.4158C33.0152 45.4611 25.4093 47.0086 19.9619 46.3398C17.7404 46.5443 17.5778 47.7272 17.7535 49.7493H39.7006ZM17.7326 52.1019V54.7299H39.7163V52.1019H17.7326Z" fill="#A87C39"/>
</g>
<defs>
<clipPath id="clip0_2777_4545">
<rect width="60.6613" height="63.6879" fill="white" transform="translate(0 0.156006)"/>
</clipPath>
</defs>
</svg>
