<svg width="56" height="56" viewBox="0 0 56 56" fill="none" xmlns="http://www.w3.org/2000/svg">
<rect width="56" height="56" rx="28" fill="white" fill-opacity="0.34"/>
<path d="M21.8335 19.8212C21.8335 18.6882 21.8335 18.1217 22.0697 17.8094C22.2755 17.5374 22.5901 17.369 22.9306 17.3487C23.3215 17.3253 23.7929 17.6396 24.7356 18.2681L37.0038 26.4468C37.7827 26.9662 38.1722 27.2258 38.3079 27.5531C38.4266 27.8392 38.4266 28.1608 38.3079 28.4469C38.1722 28.7742 37.7827 29.0339 37.0038 29.5532L24.7356 37.7319C23.7929 38.3604 23.3215 38.6747 22.9306 38.6513C22.5901 38.631 22.2755 38.4626 22.0697 38.1906C21.8335 37.8783 21.8335 37.3118 21.8335 36.1788V19.8212Z" stroke="white" stroke-width="3" stroke-linecap="round" stroke-linejoin="round"/>
</svg>
